<?xml version="1.0" encoding="UTF-8" standalone="no"?>
<svg
   width="840"
   height="300"
   version="1.1"
   id="svg4"
   sodipodi:docname="Instagram_logo.svg"
   inkscape:version="1.1.2 (0a00cf5339, 2022-02-04)"
   xmlns:inkscape="http://www.inkscape.org/namespaces/inkscape"
   xmlns:sodipodi="http://sodipodi.sourceforge.net/DTD/sodipodi-0.dtd"
   xmlns="http://www.w3.org/2000/svg"
   xmlns:svg="http://www.w3.org/2000/svg">
  <defs
     id="defs8" />
  <sodipodi:namedview
     id="namedview6"
     pagecolor="#ffffff"
     bordercolor="#999999"
     borderopacity="1"
     inkscape:pageshadow="0"
     inkscape:pageopacity="0"
     inkscape:pagecheckerboard="0"
     showgrid="false"
     inkscape:zoom="1.372619"
     inkscape:cx="420"
     inkscape:cy="150.07806"
     inkscape:window-width="1366"
     inkscape:window-height="706"
     inkscape:window-x="0"
     inkscape:window-y="0"
     inkscape:window-maximized="1"
     inkscape:current-layer="svg4" />
  <path
     style="fill:#262626"
     d="m 64.760239,49.107948 c -16.2103,6.7854 -34.030801,25.955 -39.659101,50.016996 -7.1278,30.487496 22.534301,43.379696 24.967201,39.152496 2.8635,-4.967 -5.3151,-6.6467 -6.9986,-22.465 -2.1758,-20.430692 7.3224,-43.259692 19.2762,-53.276392 2.222,-1.861 2.1163,0.7292 2.1163,5.5203 0,8.5676 -0.4734,85.479502 -0.4734,101.531102 0,21.7198 -0.8971,28.5785 -2.5083,35.3558 -1.6325,6.8681 -4.257,11.5088 -2.2683,13.2964 2.2219,1.9996 11.7086,-2.7567 17.2006,-10.4218 6.5857,-9.1931 8.891,-20.2335 9.3049,-32.2232 0.4999,-14.4532 0.4786,-37.38741 0.4999,-50.46891 0.02,-11.9977 0.2021,-47.129592 -0.2103,-68.249592 -0.1011,-5.1803 -14.4679,-10.6152 -21.2479,-7.7745 M 640.38672,150.75505 c -0.5226,11.2916 -3.0221,20.1175 -6.1242,26.3429 -6.0055,12.052 -18.4671,15.7943 -23.7581,-1.5309 -2.8834,-9.444 -3.0181,-25.2164 -0.9451,-38.39521 2.1102,-13.4255 8.0024,-23.5648 17.7592,-22.6504 9.6235,0.9039 14.128,13.3042 13.0682,36.23311 z m -162.23548,70.0559 c -0.1306,18.7617 -3.0834,35.2118 -9.4155,39.9896 -8.9809,6.7747 -21.0519,1.6929 -18.5524,-11.9977 2.2116,-12.1149 12.6709,-24.4873 27.9933,-39.6044 0,0 0.032,3.4474 -0.025,11.6125 z m -2.4528,-70.1652 c -0.5492,10.2844 -3.2154,20.616 -6.1242,26.4536 -6.0042,12.0519 -18.5564,15.8196 -23.7581,-1.5309 -3.5566,-11.8546 -2.7048,-27.1975 -0.9451,-36.86491 2.2835,-12.543 7.8185,-24.1794 17.7592,-24.1794 9.6648,0 14.4306,10.6033 13.0682,36.12241 z m -93.9833,-0.1573 c -0.5892,10.8922 -2.7141,19.9975 -6.1241,26.6109 -6.1695,11.969 -18.3751,15.7649 -23.7581,-1.5309 -3.8806,-12.4716 -2.5595,-29.47701 -0.9452,-38.66331 2.3956,-13.632 8.3944,-23.2968 17.7593,-22.381 9.6195,0.9398 14.2959,13.3028 13.0681,35.96511 z m 430.70378,12.7226 c -2.3516,0 -3.4247,2.4239 -4.3125,6.504 -3.0794,14.1866 -6.3161,17.3899 -10.49,17.3899 -4.6631,0 -8.853,-7.0246 -9.9301,-21.0866 -0.8465,-11.0572 -0.7105,-31.41391 0.372,-51.66341 0.2212,-4.1605 -0.9265,-8.277 -12.0857,-12.3309 -4.8018,-1.7437 -11.7818,-4.311196 -15.2571,4.0779 -9.8194,23.7007 -13.6614,42.51711 -14.5652,50.16101 -0.047,0.3956 -0.5319,0.4764 -0.6172,-0.4479 -0.5759,-6.1222 -1.8636,-17.24741 -2.0236,-40.62151 -0.031,-4.5605 -0.9971,-8.4424 -6.0308,-11.6205 -3.2661,-2.0622 -13.1842,-5.709496 -16.7555,-1.3704 -3.0941,3.5487 -6.6774,13.0988 -10.4007,24.4193 -3.026,9.2009 -5.1336,15.4251 -5.1336,15.4251 0,0 0.04,-24.8259 0.076,-34.2428 0.016,-3.5526 -2.4209,-4.7364 -3.1554,-4.951 -3.3074,-0.9599 -9.8235,-2.5635 -12.5896,-2.5635 -3.4127,0 -4.2485,1.9076 -4.2485,4.6871 0,0.3639 -0.5386,32.6857 -0.5386,55.28661 0,0.9817 0,2.0528 0.01,3.1906 -1.8876,10.3876 -8.0091,24.4886 -14.6665,24.4886 -6.6654,0 -9.8101,-5.8952 -9.8101,-32.839 0,-15.71831 0.4719,-22.55301 0.7039,-33.92141 0.1346,-6.5481 0.3946,-11.5765 0.3799,-12.7176 -0.049,-3.4993 -6.1001,-5.263 -8.9156,-5.9148 -2.8288,-0.6573 -5.287,-0.9119 -7.2066,-0.8026 -2.7168,0.1533 -4.6391,1.9357 -4.6391,4.3872 0,1.3144 0.015,3.8139 0.015,3.8139 -3.4993,-5.4989 -9.1275,-9.3262 -12.8722,-10.435296 -10.086,-2.995396 -20.6107,-0.3413 -28.5491,10.767296 -6.3095,8.8263 -10.11268,18.823 -11.60978,33.1856 -1.0944,10.50011 -0.7372,21.14791 1.2078,30.15281 -2.3502,10.161 -6.7134,14.3239 -11.4911,14.3239 -6.936,0 -11.9644,-11.3212 -11.3805,-30.9007 0.3852,-12.87821 2.9621,-21.91581 5.7789,-34.99061 1.2011,-5.5736 0.2253,-8.4917 -2.2223,-11.2885 -2.2449,-2.5648 -7.0279,-3.8752 -13.904,-2.2635 -4.8977,1.1491 -11.9003,2.3848 -18.3071,3.334 0,0 0.3866,-1.5424 0.7039,-4.2618 1.6663,-14.261292 -13.8307,-13.104192 -18.7751,-8.549096 -2.9514,2.719496 -4.9604,5.926896 -5.7229,11.693796 -1.2091,9.1516 6.2548,13.4681 6.2548,13.4681 -2.4489,11.2098 -8.4517,25.85361 -14.6492,36.44091 -3.3193,5.6724 -5.8588,9.8757 -9.1369,14.3439 -0.012,-1.6638 -0.021,-3.3274 -0.027,-4.9834 -0.075,-23.56751 0.2386,-42.11591 0.3772,-48.80131 0.1347,-6.548 0.3973,-11.4431 0.3826,-12.5842 -0.037,-2.5595 -1.5317,-3.526 -4.6404,-4.7498 -2.7488,-1.0824 -5.9989,-1.8316 -9.3702,-2.0929 -4.2552,-0.3319 -6.8187,1.925 -6.7521,4.5938 0.013,0.5039 0.013,3.598 0.013,3.598 -3.4994,-5.499 -9.1276,-9.3262 -12.8722,-10.435396 -10.0861,-2.994096 -20.6107,-0.3399 -28.5492,10.767296 -6.3081,8.8263 -10.4393,21.2119 -11.6098,33.0763 -1.0904,11.05771 -0.8891,20.45471 0.5973,28.37051 -1.6037,7.9266 -6.2148,16.2156 -11.4285,16.2156 -6.6654,0 -10.458,-5.8953 -10.458,-32.839 0,-15.71831 0.4719,-22.55301 0.7039,-33.92021 0.1346,-6.548 0.3946,-11.5777 0.3799,-12.7175 -0.049,-3.4993 -6.1002,-5.263 -8.9156,-5.9162 -2.9461,-0.6812 -5.4896,-0.9318 -7.4426,-0.7879 -2.5768,0.192 -4.3885,2.4996 -4.3885,4.2206 l 0,3.9659 c -3.4993,-5.499 -9.1275,-9.3262 -12.8722,-10.435396 -10.086,-2.994096 -20.552,-0.2972 -28.5491,10.767296 -5.215,7.2146 -9.4369,15.2131 -11.6098,32.919 -0.6279,5.11671 -0.9052,9.90811 -0.8692,14.38661 -2.0796,12.7179 -11.2645,27.376 -18.7777,27.376 -4.3965,0 -8.5837,-8.5275 -8.5837,-26.7015 0,-24.20871 1.4984,-58.676706 1.7517,-61.998702 0,0 9.4928,-0.1613 11.3312,-0.1827 4.735,-0.052 9.0236,0.06 15.3303,-0.2626 3.1634,-0.1613 6.2108,-11.5138 2.9461,-12.9188 -1.4797,-0.6359 -11.9377,-1.1931 -16.0835,-1.2811 -3.486,-0.079 -13.1908,-0.7972 -13.1908,-0.7972 0,0 0.8705,-22.8783 1.0731,-25.2951 0.172,-2.0143 -2.4342,-3.0514 -3.9286,-3.6807 -3.6339,-1.537 -6.8853,-2.2729 -10.7392,-3.0674 -5.3244,-1.0984 -7.7399,-0.024 -8.2118,4.4698 -0.7105,6.8201 -1.0785,26.7962 -1.0785,26.7962 -3.9072,0 -17.254,-0.7638 -21.1625,-0.7638 -3.6313,0 -7.5506,15.617 -2.5302,15.8089 5.7762,0.224 15.8423,0.4173 22.5156,0.6186 0,0 -0.2972,35.035892 -0.2972,45.852492 0,1.1508 0.01,2.259 0.012,3.3343 -3.6727,19.14301 -16.6088,29.48361 -16.6088,29.48361 2.7781,-12.6642 -2.8968,-22.1744 -13.1188,-30.22481 -3.766,-2.9666 -11.2006,-8.5828 -19.519,-14.7372 0,0 4.8178,-4.7484 9.0903,-14.3012 3.0274,-6.7667 3.1581,-14.5106 -4.2725,-16.218196 -12.2777,-2.823496 -22.401,6.193396 -25.4205,15.819596 -2.3395,7.4572 -1.0917,12.9908 3.4914,18.739 0.3346,0.42 0.6972,0.8492 1.0718,1.2811 -2.7715,5.3419 -6.5788,12.5339 -9.8035,18.11121 -8.9503,15.485 -15.7116,27.7333 -20.8213,27.7333 -4.0846,0 -4.0299,-12.4352 -4.0299,-24.078 0,-10.03711 0.7412,-25.12721 1.3331,-40.75081 0.1959,-5.167 -2.3876,-8.1105 -6.7187,-10.7766 -2.6315,-1.6197 -8.2478,-4.8044 -11.5005,-4.8044 -4.8686,0 -18.915,0.6625 -32.1871,39.0538 -1.6726,4.8389 -4.9585,13.65601 -4.9585,13.65601 l 0.2828,-46.16711 c 0,-1.0824 -0.5765,-2.1289 -1.8965,-2.8448 -2.2365,-1.2144 -8.2099,-3.6979 -13.5214,-3.6979 -2.5307,0 -3.7936,1.1771 -3.7936,3.5233 l -0.4633,72.22881 c 0,5.488 0.1431,11.8903 0.6857,14.6905 0.5406,2.8037 1.4164,5.0845 2.5011,6.4415 1.0831,1.3544 2.336,2.3876 4.4017,2.814 1.9226,0.3958 12.4503,1.7477 12.9975,-2.2755 0.6556,-4.8215 0.6807,-10.0366 6.2088,-29.4864 8.6061,-30.28081 19.8269,-45.05531 25.1018,-50.30231 0.9223,-0.9171 1.9754,-0.9718 1.9247,0.5292 -0.2252,6.6388 -1.0171,23.2276 -1.5502,37.32091 -1.4289,37.7154 5.4322,44.706 15.2371,44.706 7.5012,0 18.0752,-7.4533 29.4103,-26.3202 7.0667,-11.7576 13.928,-23.2862 18.8577,-31.59531 3.4354,3.1802 7.2906,6.60301 11.1432,10.25951 8.9529,8.4973 11.8924,16.5715 9.9421,24.2313 -1.4917,5.8557 -7.1093,11.8904 -17.1074,6.0249 -2.9141,-1.7112 -4.1579,-3.0333 -7.088,-4.9625 -1.5743,-1.0364 -3.9779,-1.3462 -5.4189,-0.2605 -3.7433,2.8224 -5.8842,6.4123 -7.1066,10.8568 -1.1891,4.3247 3.142,6.6108 7.6318,8.6104 3.8659,1.721 12.175,3.2805 17.474,3.4581 20.6467,0.6905 37.1862,-9.9689 48.6999,-37.4648 2.061,23.7461 10.8326,37.1835 26.0724,37.1835 10.1887,0 20.404,-13.1698 24.8712,-26.1256 1.2824,5.2812 3.1807,9.8737 5.6322,13.7573 11.7431,18.6058 34.524,14.6012 45.9672,-1.1981 3.538,-4.8819 4.0765,-6.6362 4.0765,-6.6362 1.669,14.9184 13.6827,20.1308 20.5614,20.1308 7.7039,0 15.6583,-3.642 21.2332,-16.1929 0.6533,1.3621 1.3664,2.6629 2.145,3.896 11.743,18.6058 34.524,14.6012 45.9671,-1.1981 0.5399,-0.7411 1.0078,-1.4134 1.4171,-2.0168 l 0.3359,9.7991 c 0,0 -6.5281,5.9885 -10.5353,9.6622 -17.6366,16.1809 -31.0473,28.4572 -32.0338,42.7531 -1.2664,18.2285 13.5174,25.0032 24.7019,25.891 11.8777,0.9426 22.0491,-5.6187 28.3012,-14.8012 5.4989,-8.0823 9.0983,-25.4777 8.8343,-42.6584 -0.1053,-6.8799 -0.2786,-15.6277 -0.4146,-25.0045 6.1988,-7.1986 13.1828,-16.2969 19.6136,-26.9468 7.008,-11.6061 14.5185,-27.19211 18.3644,-39.32181 0,0 6.5255,0.056 13.4894,-0.3999 2.2276,-0.1453 2.8675,0.3092 2.4556,1.9423 -0.4973,1.9729 -8.7983,33.99081 -1.2225,55.32001 5.1857,14.6012 16.8755,19.2989 23.8061,19.2989 8.1131,0 15.8743,-6.1269 20.03348,-15.225 0.5012,1.0143 1.0251,1.9958 1.597,2.9019 11.7431,18.6058 34.4441,14.5772 45.9672,-1.1981 2.6008,-3.5592 4.0765,-6.6362 4.0765,-6.6362 2.4729,15.4397 14.4799,20.2094 21.3572,20.2094 7.164,0 13.9627,-2.9369 19.479,-15.9889 0.2306,5.7468 0.5932,10.4459 1.1664,11.9274 0.3493,0.906 2.3849,2.0434 3.8659,2.5927 6.5534,2.4302 13.2375,1.281 15.7103,0.7811 1.713,-0.3467 3.0488,-1.721 3.2314,-5.2698 0.4799,-9.3181 0.1853,-24.9739 3.0101,-36.609 4.7418,-19.52691 9.1649,-27.10141 11.2632,-30.85131 1.1744,-2.101 2.4995,-2.4476 2.5475,-0.224 0.099,4.4991 0.3226,17.7113 2.1596,35.46251 1.349,13.0554 3.1514,20.772 4.5364,23.2142 3.9526,6.984 8.8343,7.3147 12.8096,7.3147 2.5288,0 7.8171,-0.6988 7.3439,-5.1432 -0.2306,-2.1663 0.1733,-15.5544 4.8484,-34.792 3.0527,-12.56281 8.1424,-23.91411 9.9781,-28.06391 0.6772,-1.5304 0.9918,-0.324 0.9811,-0.089 -0.3866,8.6517 -1.2544,36.95031 2.2702,52.42731 4.7778,20.9666 18.5991,23.3128 23.4155,23.3128 10.282,0 18.6911,-7.8214 21.5239,-28.4012 0.6825,-4.9526 -0.328,-8.7768 -3.3554,-8.7768"
     id="path2" />
  <path
     style="fill:#ffffff;stroke-width:0.728534"
     d="m 59.312952,217.20281 c -0.247114,-0.64397 0.608761,-5.19175 1.901943,-10.10617 l 2.351241,-8.93532 0.579252,-33.87684 c 0.87214,-51.00609 0.839179,-101.819183 -0.06641,-102.378869 -2.192541,-1.355064 -9.968468,8.004595 -14.620292,17.598023 -4.534292,9.351041 -6.638012,18.543065 -6.731394,29.412236 -0.08927,10.39031 0.945413,14.9181 5.115811,22.38691 3.214334,5.75658 2.896514,7.87014 -1.071512,7.12574 C 38.59437,136.89446 29.490889,128.1297 26.131737,118.55662 19.163286,98.697588 36.70334,64.858097 60.812861,51.647392 c 4.012213,-2.198475 5.849803,-2.779866 8.742411,-2.765993 4.708475,0.02258 10.356039,1.940385 13.539467,4.597738 l 2.508036,2.093572 0.210341,50.531081 c 0.250069,60.07529 -0.370077,77.44461 -3.100076,86.82836 -2.238572,7.69459 -3.685445,10.66015 -7.64492,15.66926 -5.068184,6.41174 -14.598786,11.61488 -15.755168,8.6014 z"
     id="path195" />
  <path
     style="fill:#ffffff;stroke-width:0.728534"
     d="m 455.33391,271.88035 c -8.65212,-1.95908 -14.85537,-6.3461 -17.98492,-12.71916 -1.76716,-3.59868 -2.04699,-5.028 -2.02964,-10.36674 0.0183,-5.61476 0.26757,-6.70244 2.67219,-11.65741 3.37249,-6.94938 9.2795,-13.8535 22.49086,-26.28731 5.78325,-5.44288 12.03664,-11.344 13.89643,-13.11361 l 3.38144,-3.21747 -0.36819,-4.88861 -0.36819,-4.8886 -4.83458,4.9561 c -8.46373,8.67647 -18.53425,12.01836 -27.95959,9.27834 -6.23913,-1.81377 -9.85329,-4.93147 -16.06983,-13.86238 -0.89991,-1.29284 -1.12857,-1.10749 -3.23216,2.61986 -4.148,7.34987 -11.65649,12.24929 -18.77233,12.24929 -3.78499,0 -8.82728,-2.12238 -12.29583,-5.17553 -4.05882,-3.57271 -5.96817,-6.60546 -7.2075,-11.44818 l -0.96119,-3.75582 -3.07184,4.67228 c -3.8465,5.85053 -8.46877,9.95463 -14.62453,12.9851 -4.25968,2.09704 -5.46658,2.35551 -10.99509,2.35472 -7.0595,-7.2e-4 -10.89406,-1.35701 -15.66001,-5.53782 -4.52495,-3.96939 -7.23334,-8.77504 -10.97555,-19.4745 -0.18733,-0.53562 -1.97542,2.29174 -3.97353,6.28302 -5.96024,11.90579 -14.27483,19.14034 -21.91089,19.06476 -12.28494,-0.12161 -21.50195,-11.44618 -24.07107,-29.57518 -1.18042,-8.32964 -1.27061,-8.41407 -3.58271,-3.3541 -5.26174,11.51516 -14.02947,22.05828 -22.73341,27.33672 -6.268,3.80119 -10.62608,5.02995 -19.28494,5.4374 -14.82608,0.69766 -29.36065,-4.12253 -29.36065,-9.73706 0,-4.33029 6.19029,-12.66037 9.40824,-12.66037 0.70542,0 3.05711,1.26519 5.22598,2.81153 5.91011,4.21374 8.23991,5.20235 12.26002,5.20235 3.03389,0 4.0827,-0.37684 6.18424,-2.22202 3.28014,-2.88 4.34461,-6.24171 3.90813,-12.34215 -0.51108,-7.14301 -3.00419,-11.22656 -12.56928,-20.58761 -4.40135,-4.30746 -8.33936,-7.83174 -8.75114,-7.83174 -0.41177,0 -5.49844,7.94232 -11.30371,17.64959 -5.80526,9.70728 -12.38146,20.11622 -14.61379,23.13097 -7.57074,10.2243 -16.42321,16.75024 -22.74389,16.76653 -3.72685,0.01 -8.0514,-2.32288 -9.9238,-5.3525 -2.25348,-3.6462 -4.20388,-12.14451 -4.79752,-20.90376 -0.44776,-6.60682 0.57026,-45.19143 1.40829,-53.37604 0.40305,-3.93645 -1.36797,-4.43418 -4.17089,-1.17219 -3.96168,4.61055 -10.08846,14.51045 -13.64073,22.04126 -6.37087,13.50626 -13.18347,36.0222 -15.31492,50.61649 -1.10854,7.59039 -2.09987,8.46666 -9.0758,8.02247 -5.95041,-0.3789 -8.30797,-1.9949 -9.9918,-6.84897 -1.11547,-3.21564 -1.24632,-7.98093 -1.27493,-46.43267 -0.021,-28.20465 0.22586,-43.3309 0.72227,-44.25846 1.42751,-2.667312 11.87985,-1.16546 16.34767,2.34893 l 2.00301,1.57557 -0.52043,23.74253 c -0.34348,15.66937 -0.2752,23.49481 0.20079,23.01399 0.39667,-0.40069 2.42988,-5.48222 4.51824,-11.29228 9.2383,-25.70206 18.59113,-38.68501 29.31117,-40.68773 4.242,-0.79249 8.91702,0.64023 14.77019,4.52652 6.56658,4.35996 6.46973,3.84433 5.71122,30.40747 -1.03176,36.13195 -0.21896,45.09459 4.08951,45.09459 4.11915,0 13.22088,-13.23826 27.29853,-39.70511 l 3.48756,-6.55681 -2.58084,-3.83365 c -2.9991,-4.45497 -3.8202,-8.57 -2.70008,-13.53159 2.29768,-10.17759 10.23014,-17.644238 19.65269,-18.498645 4.85025,-0.439805 8.81753,0.964199 10.6569,3.771435 2.66696,4.0703 -0.61721,14.50875 -7.3328,23.30666 -1.46624,1.92088 -2.39286,3.73121 -2.05915,4.02296 0.33372,0.29175 5.20065,3.9915 10.81542,8.22167 17.54612,13.21924 21.78828,19.09587 21.82631,30.23587 0.0113,3.30572 0.25919,6.0104 0.55091,6.0104 1.29682,0 8.93186,-10.37313 11.52893,-15.66348 4.85465,-9.8891 5.06124,-11.48631 5.06124,-39.12965 V 95.073721 h -11.15304 c -13.67739,0 -14.02996,-0.160666 -13.41559,-6.113398 0.23535,-2.280343 1.04779,-5.198061 1.8054,-6.483817 l 1.37748,-2.337738 11.31058,0.163304 11.31059,0.163303 0.41571,-13.760257 c 0.56611,-18.738524 0.90753,-19.23942 11.43013,-16.769008 3.59422,0.843824 7.58754,2.247415 8.87405,3.119092 2.30876,1.564305 2.33743,1.655758 2.21004,7.048874 -0.071,3.005204 -0.33397,8.988292 -0.58439,13.295751 -0.25347,4.359782 -0.17154,7.831929 0.18481,7.832164 5.8688,0.0039 27.80912,1.714444 28.80142,2.245509 2.62126,1.402854 1.02491,9.817678 -2.18875,11.53758 -0.89249,0.477647 -6.47185,0.787175 -14.18912,0.787175 -12.58534,0 -12.72244,0.01713 -13.11747,1.639202 -0.21956,0.901561 -0.79358,15.408503 -1.2756,32.237643 -0.65913,23.01254 -0.67123,32.33504 -0.0488,37.60321 2.1362,18.08107 7.5139,22.47593 16.50296,13.48687 6.41973,-6.41972 11.28994,-18.45858 11.28994,-27.908 0,-7.0107 2.07153,-19.58792 4.36406,-26.49618 3.91938,-11.8106 11.13784,-21.48049 18.86928,-25.27737 3.42591,-1.682464 5.02907,-2.006971 9.91497,-2.006971 7.28179,0 11.19087,1.745331 16.81812,7.508971 l 3.94511,4.04072 v -2.92993 c 0,-3.84613 1.66156,-5.34136 5.93554,-5.34136 4.22038,0 10.51107,1.87593 12.30439,3.66925 1.35442,1.35443 1.38799,2.43887 0.96261,31.10469 -0.52575,35.42962 0.27776,44.04569 4.53603,48.64044 4.87373,5.25884 12.1042,1.75534 15.70282,-7.60875 1.72717,-4.49435 1.74497,-4.80481 0.98381,-17.15862 -1.67853,-27.24286 7.98869,-52.60701 22.82791,-59.89417 3.47944,-1.708668 5.06187,-2.031241 9.96458,-2.031241 7.28179,0 11.19087,1.745331 16.81812,7.508971 l 3.94511,4.04072 v -2.92993 c 0,-4.47042 1.72107,-5.63661 7.61981,-5.16312 2.84404,0.22829 6.11982,1.06797 8.20938,2.10429 l 3.47696,1.72441 -0.29249,34.42325 c -0.17848,21.00643 -0.0278,34.42324 0.38674,34.42324 1.01047,0 9.44434,-13.81571 13.78139,-22.57559 3.80083,-7.67683 7.2443,-16.50316 9.40733,-24.11294 l 1.15667,-4.06928 -2.54666,-2.70024 c -3.47919,-3.68902 -4.54808,-7.49761 -3.50282,-12.48094 1.62842,-7.76355 7.07212,-12.742711 13.93154,-12.742711 6.71627,0 10.01273,3.895341 9.36272,11.063711 -0.38063,4.19775 -0.36681,4.23536 1.55032,4.21847 1.06391,-0.009 6.03239,-0.82771 11.04107,-1.81854 5.00867,-0.99083 10.25411,-1.80226 11.65654,-1.80317 3.7807,-0.002 7.33405,2.12443 9.00375,5.38928 1.62772,3.18277 1.55561,3.90124 -2.09116,20.83403 -5.02401,23.32766 -3.69552,43.74526 3.32665,51.12709 2.95579,3.10719 5.72491,3.60824 9.40993,1.70264 4.52898,-2.34203 8.32408,-10.94583 7.26659,-16.47397 -2.07196,-10.83147 -1.41471,-27.58883 1.55452,-39.63416 3.27745,-13.29565 11.72494,-25.85658 20.18206,-30.00955 3.5119,-1.724561 5.08196,-2.045961 9.99467,-2.045961 7.25754,0 11.22409,1.759831 16.84907,7.475411 l 3.91416,3.9772 V 107.591 c 0,-4.50372 1.42717,-5.48198 7.37657,-5.05631 3.11914,0.22318 6.19161,0.98628 8.42036,2.09135 l 3.50923,1.73996 -0.25751,30.23417 c -0.32484,38.13923 0.58352,46.3837 5.54006,50.28251 5.69304,4.47815 13.07372,-2.09759 17.28219,-15.3974 1.7013,-5.37652 1.77136,-6.51726 2.25967,-36.79098 0.28646,-17.759 0.81022,-31.83498 1.21363,-32.61543 0.61894,-1.19744 1.28188,-1.31773 5.18491,-0.94084 2.46137,0.23767 6.17285,0.94319 8.24772,1.56781 5.46356,1.64475 5.66882,2.58574 5.04342,23.12064 -0.2781,9.13108 -0.23747,16.60197 0.0903,16.60197 0.32776,0 2.52357,-5.81917 4.87957,-12.93149 7.2853,-21.99287 10.56247,-28.48456 14.47442,-28.67216 7.76714,-0.37249 15.56427,3.38108 17.71478,8.52798 0.63143,1.51125 1.01796,5.1257 1.02201,9.55704 0.007,7.83634 1.15677,29.16788 1.86623,34.62877 0.24727,1.9033 0.70442,3.46054 1.0159,3.46054 0.31147,0 0.78914,-1.72116 1.06149,-3.8248 1.21741,-9.40342 7.70184,-31.50668 12.93094,-44.07722 2.55443,-6.14074 4.7325,-8.19512 8.68855,-8.19512 4.81172,0 14.66042,4.33122 17.42459,7.66292 0.91744,1.1058 1.08803,5.91585 1.12103,31.60819 0.0338,26.29827 0.20476,30.92113 1.29356,34.97333 2.18508,8.1323 5.57099,12.45114 9.76151,12.45114 3.7557,0 6.9859,-5.18145 9.70073,-15.56059 1.7527,-6.70078 2.95569,-8.7141 4.97454,-8.32534 2.27252,0.4376 2.98781,4.82636 1.8527,11.36741 -2.69079,15.5056 -10.41605,24.9036 -20.47105,24.9036 -4.36192,0 -9.50178,-2.14836 -13.29139,-5.55555 -9.42824,-8.4768 -11.61798,-17.4771 -12.38524,-50.90585 l -0.4682,-20.39896 -2.41667,5.06691 c -6.25707,13.11883 -12.07587,36.63674 -12.94506,52.32013 -0.26139,4.71639 -0.84309,9.07829 -1.29267,9.69312 -1.04876,1.43428 -5.87025,2.52606 -8.74764,1.98084 -7.12315,-1.34976 -10.37741,-5.75831 -12.41064,-16.81273 -1.8796,-10.21919 -4.01696,-34.2322 -4.02305,-45.19848 -0.003,-4.68787 -0.15768,-5.30561 -1.2779,-5.09065 -3.74866,0.71935 -12.62588,25.30306 -14.68243,40.66011 -0.40245,3.00521 -0.96197,11.14618 -1.24338,18.09105 -0.61869,15.26838 -0.67585,15.38684 -7.69519,15.95029 -5.31937,0.42699 -11.04007,-0.66113 -13.49211,-2.5663 -1.3127,-1.01992 -1.7038,-2.34347 -2.19652,-7.43341 l -0.59946,-6.19254 -2.48586,4.60502 c -6.44517,11.93955 -17.04677,15.0738 -27.83824,8.23005 -4.37133,-2.77222 -7.13071,-6.49092 -9.05139,-12.19821 l -1.561,-4.63853 -2.65847,4.30706 c -7.4053,11.99752 -21.27326,18.39915 -32.67685,15.08403 -5.05835,-1.47051 -10.5518,-5.71681 -13.71878,-10.60429 -1.3159,-2.03078 -2.49284,-3.69233 -2.6154,-3.69233 -0.12258,0 -0.75812,1.03506 -1.41231,2.30013 -1.77951,3.4412 -7.52804,9.28868 -10.85086,11.03764 -4.44987,2.34219 -11.22562,2.1754 -16.48134,-0.40568 -8.38253,-4.11667 -13.96614,-12.15597 -16.31878,-23.49583 -2.24866,-10.83875 -1.31661,-29.7619 2.22423,-45.15753 0.55146,-2.39778 0.73992,-4.62234 0.4188,-4.94347 -0.32112,-0.32112 -4.12078,-0.49026 -8.44368,-0.37586 l -7.85981,0.20799 -2.10095,5.82828 c -5.70819,15.83507 -20.04588,40.95188 -31.09776,54.47713 l -4.50435,5.5124 v 17.37907 c 0,23.95587 -1.7492,36.24866 -6.62877,46.58464 -6.37815,13.5103 -20.8827,21.25644 -34.16915,18.24801 z m 10.59389,-9.15608 c 8.2397,-3.74278 11.6519,-14.93447 12.46548,-40.88559 l 0.42254,-13.47788 -5.97114,5.82827 c -8.86602,8.6539 -15.65547,17.36864 -19.52761,25.06511 -3.22668,6.4135 -3.44717,7.21372 -3.44717,12.51118 0,4.57556 0.28898,6.05387 1.50886,7.71894 3.23514,4.41578 9.09008,5.71963 14.54904,3.23997 z m -98.31467,-76.3004 c 3.38061,-1.60421 6.70564,-5.5758 9.06275,-10.82501 6.04948,-13.47201 7.44579,-38.12584 2.9007,-51.21605 -3.46453,-9.97814 -12.95611,-13.24835 -20.36302,-7.01585 -3.04552,2.56263 -7.04698,11.15987 -8.44319,18.14041 -1.54846,7.74168 -2.17306,24.0995 -1.18226,30.96271 1.98247,13.73247 6.53156,21.05582 13.11185,21.10811 1.34187,0.0106 3.5528,-0.50878 4.91317,-1.15432 z m 96.14483,-1.36179 c 7.8631,-5.99748 12.27325,-21.06229 12.26751,-41.9051 -0.004,-12.06203 -0.80375,-17.30361 -3.44887,-22.58456 -3.11489,-6.21885 -10.72755,-8.17266 -16.92338,-4.34342 -4.63956,2.8674 -8.82457,11.12689 -11.06018,21.82824 -1.65166,7.90614 -1.62586,27.84668 0.0447,34.53525 1.5909,6.36964 4.4624,11.67382 7.35288,13.58207 3.15282,2.08145 8.20625,1.6037 11.76734,-1.11248 z m 162.48483,1.36179 c 7.80774,-3.70502 13.30597,-17.40986 14.53214,-36.22265 0.57192,-8.77481 -0.54726,-19.99579 -2.57767,-25.844 -4.6066,-13.26837 -18.62326,-13.61092 -24.98886,-0.61069 -2.66705,5.44683 -3.97415,11.45411 -4.96315,22.81004 -1.33126,15.28576 0.54015,28.95611 4.87946,35.64377 3.40597,5.24922 7.90445,6.69756 13.11808,4.22353 z"
     id="path234" />
</svg>
